
<svg width="94px" height="50px" viewBox="0 0 94 50" version="1.1" xmlns="http://www.w3.org/2000/svg" xmlns:xlink="http://www.w3.org/1999/xlink">
    <!-- Generator: Sketch 51.1 (57501) - http://www.bohemiancoding.com/sketch -->
    <desc>Created with Sketch.</desc>
    <defs></defs>
    <g id="Page-1" stroke="none" stroke-width="1" fill="none" fill-rule="evenodd">
        <g id="Desktop-HD-Copy" transform="translate(-462.000000, -552.000000)" fill="#FFFFFF" fill-rule="nonzero">
            <g id="54f002bc156653cebc09a7ea2837acd1-48" transform="translate(462.000000, 552.000000)">
                <path d="M32.3811881,17.8712871 C32.8714258,17.8232267 33.3607843,17.970924 33.7425743,18.2821782 C34.0845791,18.6781622 34.2617538,19.190197 34.2376238,19.7128713 C34.241379,20.1778919 34.1051073,20.633281 33.8465347,21.019802 C33.5138663,21.5013417 32.9427971,21.7602264 32.3613861,21.6930693 L30.3663366,21.6930693 L30.3663366,17.8712871 L32.3811881,17.8712871 Z M31.9207921,11.5445545 C32.3400324,11.52603 32.7588341,11.5899435 33.1534653,11.7326733 C33.6606095,11.9969982 33.9607341,12.5387815 33.9158416,13.1089109 C33.9257641,13.5229943 33.78702,13.9269327 33.5247525,14.2475248 C33.1850555,14.5929808 32.7033284,14.7596621 32.2227723,14.6980198 L30.3168317,14.6980198 L30.3168317,11.5445545 L31.9158416,11.5445545 L31.9207921,11.5445545 Z M26.6237624,8.28217822 L26.6237624,24.8514851 L33.3019802,24.8514851 C36.4108911,24.8514851 38.4158416,22.990099 38.4158416,20.1089109 C38.4854019,18.8213183 37.9330445,17.5785141 36.9306931,16.7673267 C36.5595117,16.4616914 36.1416485,16.2176593 35.6930693,16.0445545 C36.0335407,15.8824754 36.3500499,15.6742456 36.6336634,15.4257426 C37.4140872,14.6765494 37.8389062,13.6307026 37.8019802,12.549505 C37.8188992,11.3786994 37.3168521,10.2604213 36.4306931,9.4950495 C35.3069307,8.5049505 34.0148515,8.28217822 32.2970297,8.28217822 L26.6237624,8.28217822 Z" id="Shape"></path>
                <polygon id="Shape" points="38.5445545 8.28217822 38.5445545 11.4653465 43.1881188 11.4653465 43.1881188 24.8316832 46.9207921 24.8316832 46.9207921 11.4653465 50.990099 11.4653465 52.0643564 8.28217822"></polygon>
                <path d="M58.5346535,17.6930693 C59.0011493,17.6774409 59.4621188,17.7978434 59.8613861,18.039604 C60.3662855,18.4154901 60.6399213,19.0264851 60.5841584,19.6534653 C60.6207663,20.14785 60.4765032,20.6386963 60.1782178,21.0346535 C59.7968002,21.4739399 59.2280818,21.7040039 58.6485149,21.6534653 L56.6683168,21.6534653 L56.6683168,17.6930693 L58.539604,17.6930693 L58.5346535,17.6930693 Z M52.9405941,8.28712871 L52.9405941,24.8514851 L59.1336634,24.8514851 C60.4075392,24.8812037 61.6622022,24.5369889 62.7425743,23.8613861 C63.6584158,23.2376238 64.7475248,21.990099 64.7475248,19.6287129 C64.8216772,18.1310026 64.1983684,16.6833177 63.0594059,15.7079208 C62.3861386,15.1633663 61.1336634,14.519802 58.9950495,14.519802 L56.6633663,14.519802 L56.6633663,11.450495 L62.9306931,11.450495 L64.0148515,8.26237624 L52.9405941,8.26237624 L52.9405941,8.28712871 Z" id="Shape"></path>
                <path d="M15.3465347,8.28217822 L2.77227723,8.28217822 C2.97140128,8.92675885 3.24730898,9.54505803 3.59405941,10.1237624 L14.7920792,10.1237624 C16.2288546,11.3573072 17.3191728,12.9441552 17.9554455,14.7277228 L6.17821782,14.7277228 C4.13086113,13.0530374 2.61822635,10.8159212 1.82673267,8.29207921 C1.9290429,7.98184818 2.04125413,7.67491749 2.16336634,7.37128713 L15.3465347,7.37128713 C16.0866105,6.82387357 16.7728763,6.20722887 17.3960396,5.52970297 L3.08415842,5.52970297 C3.27557756,5.19966997 3.47854785,4.89273927 3.69306931,4.60891089 L18.1584158,4.60891089 C18.575799,4.01556991 18.959251,3.39907166 19.3069307,2.76237624 L5.28712871,2.76237624 C5.62405199,2.43727589 5.9776655,2.12992957 6.34653465,1.84158416 L19.7128713,1.84158416 C19.9651624,1.24050413 20.1833311,0.625665228 20.3663366,0 L5.82178218,0 C2.98969695,2.0122726 0.934498476,4.9360371 -3.55271368e-15,8.28217822 C0.935230078,11.6253231 2.98608795,14.5478829 5.81188119,16.5643564 L20.3267327,16.5643564 C20.3267327,16.5643564 20.0742574,12.1534653 15.3762376,8.27722772" id="Shape"></path>
                <path d="M93.1633663,48.6089109 L93.1633663,36.2326733 L91.5049505,36.2326733 C91.6652501,36.560958 91.7594456,36.917555 91.7821782,37.2821782 L91.7821782,48.6089109 C91.7588054,48.9718484 91.664626,49.326703 91.5049505,49.6534653 L93.4405941,49.6534653 C93.2806773,49.326793 93.186485,48.9718899 93.1633663,48.6089109" id="Shape"></path>
                <path d="M28.3613861,40.1683168 C28.3613861,40.1683168 28.3613861,34.2277228 28.3613861,34.1534653 L30.1237624,34.1534653 C30.5228904,34.1004612 30.9261435,34.2151643 31.2376238,34.470297 L31.2376238,33.0990099 L26.6584158,33.0990099 C26.7962784,33.5049136 26.8762724,33.9282147 26.8960396,34.3564356 L26.8960396,48.5148515 C26.8960396,48.5148515 26.8267327,49.5693069 26.6237624,49.7376238 C26.8118812,49.7376238 27.1930693,49.7376238 27.549505,49.7376238 C27.549505,49.7376238 29.2574257,49.9158416 30.0247525,49.4455446 C30.7920792,48.9752475 31.7623762,48.2425743 31.7623762,44.8663366 C31.7623762,41.490099 30.2376238,40.1534653 28.3613861,40.1534653 M29.5445545,48.2920792 C29.2467275,48.625101 28.8048994,48.7914798 28.3613861,48.7376238 L28.3613861,41.2029703 C29.5594059,41.2029703 29.9851485,42.5742574 29.9851485,45.5891089 C29.9851485,46.6435644 29.8811881,47.7623762 29.5445545,48.3069307" id="Shape"></path>
                <path d="M37.1633663,47.6287129 L37.1633663,38.3019802 C37.1633663,38.2326733 37.1039604,36.0346535 35.0792079,36.0346535 C33.0544554,36.0346535 32.7475248,38.8118812 32.7475248,39.6039604 C32.7475248,40.3960396 32.9752475,40.480198 32.9752475,40.480198 L34.2970297,40.480198 C34.1661936,39.9478408 34.1194238,39.3982959 34.1584158,38.8514851 C34.1980198,37.8613861 34.2524752,36.8712871 35.0346535,36.8712871 C35.7128713,36.8712871 35.7920792,37.6089109 35.7920792,38.3069307 L35.7920792,41.3168317 C33.838967,42.6078687 32.6523621,44.782693 32.6237624,47.1237624 C32.6237624,49.1633663 33.9059406,49.9207921 34.9554455,49.9207921 C35.4033406,49.9580715 35.8287996,49.7188734 36.029703,49.3168317 C36.1991073,49.5931889 36.4380966,49.8202287 36.7227723,49.9752475 L37.7128713,48.7277228 C37.3785071,48.4582249 37.1823487,48.0531939 37.1782178,47.6237624 M35.1138614,49.009901 C34.6188119,49.009901 34.2871287,48.3415842 34.2871287,46.6831683 C34.2871287,43.6633663 35.7029703,42.5792079 35.7722772,42.519802 L35.7722772,48.460396 C35.7737414,48.6265079 35.7006487,48.7845245 35.5731118,48.8909652 C35.4455748,48.9974058 35.2770323,49.0410546 35.1138614,49.009901" id="Shape"></path>
                <path d="M43.0940594,36.2425743 L41.4356436,36.2425743 C41.5976576,36.5705043 41.6935394,36.9271175 41.7178218,37.2920792 L41.7178218,42.3168317 L40.1435644,42.3168317 L40.1435644,36.2425743 L38.4851485,36.2425743 C38.6470414,36.57055 38.7429166,36.9271387 38.7673267,37.2920792 L38.7673267,48.6089109 C38.7426587,48.9722282 38.64678,49.3271476 38.4851485,49.6534653 L40.4257426,49.6534653 C40.2659466,49.3267479 40.1717608,48.9718691 40.1485149,48.6089109 L40.1485149,43.0693069 L41.7227723,43.0693069 L41.7227723,48.6089109 C41.6983607,48.9722711 41.6024687,49.3272397 41.4405941,49.6534653 L43.3811881,49.6534653 C43.2193135,49.3272397 43.1234215,48.9722711 43.0990099,48.6089109 L43.0990099,36.2326733 L43.0940594,36.2425743 Z" id="Shape"></path>
                <path d="M49.2475248,36.2425743 L47.7623762,36.2425743 C47.8228706,36.58148 47.8228706,36.928421 47.7623762,37.2673267 L46.0792079,41.5841584 L46.0792079,36.2425743 L44.4207921,36.2425743 C44.5826849,36.57055 44.6785602,36.9271387 44.7029703,37.2920792 L44.7029703,48.6089109 C44.6783022,48.9722282 44.5824235,49.3271476 44.4207921,49.6534653 L46.3564356,49.6534653 C46.1967601,49.326703 46.1025807,48.9718484 46.0792079,48.6089109 L46.0792079,43.9455446 L46.7722772,42.2623762 L48.1980198,48.6089109 C48.2461817,48.957652 48.2260045,49.3124334 48.1386139,49.6534653 L49.7772277,49.6534653 L47.6831683,40.0544554 L49.2475248,36.2425743 Z" id="Shape"></path>
                <path d="M61.4653465,33.0990099 L59.519802,33.0990099 L57.8514851,39.8366337 L56.1831683,33.0990099 L54.2772277,33.0990099 C54.480198,33.2722772 54.549505,34.2574257 54.549505,34.2574257 L54.549505,48.3960396 C54.5298033,48.8242682 54.4498077,49.2475785 54.3118812,49.6534653 L56.2574257,49.6534653 C56.119754,49.2475115 56.0397652,48.8242376 56.019802,48.3960396 L56.019802,37.7623762 L57.8514851,46.4653465 L59.7227723,37.5544554 L59.7227723,48.3960396 C59.703005,48.8242605 59.6230111,49.2475617 59.4851485,49.6534653 L61.4306931,49.6534653 C61.2925096,49.2476461 61.212507,48.824299 61.1930693,48.3960396 L61.1930693,34.2574257 C61.1930693,34.2574257 61.2623762,33.2673267 61.4653465,33.0990099" id="Shape"></path>
                <path d="M65.0841584,36.0247525 L64.8910891,36.0247525 C62.9108911,36.0247525 62.509901,39.2970297 62.509901,42.2524752 C62.509901,45.2079208 62.509901,49.9108911 64.9851485,49.9158416 C67.460396,49.9207921 67.460396,45.2029703 67.460396,42.2524752 C67.460396,39.3019802 67.0693069,36.0247525 65.0792079,36.0247525 M65.7574257,42.0792079 C65.7574257,43.7722772 65.7574257,48.1435644 65.4306931,48.7871287 C65.347977,48.957916 65.1749122,49.0663911 64.9851485,49.0663911 C64.7953849,49.0663911 64.62232,48.957916 64.539604,48.7871287 C64.2079208,48.1485149 64.2128713,43.7722772 64.2128713,42.0792079 C64.2128713,40.5940594 64.2128713,38.0643564 64.4009901,37.3663366 C64.4477867,37.0961222 64.672106,36.8921955 64.9455446,36.8712871 L65.0247525,36.8712871 C65.2989361,36.8904596 65.5241676,37.0952155 65.5693069,37.3663366 C65.7623762,38.0693069 65.7574257,40.5940594 65.7574257,42.0792079" id="Shape"></path>
                <path d="M73.2326733,43.3118812 L71.7475248,43.3118812 C71.7475248,43.3118812 71.8762376,43.6485149 71.980198,44.0346535 C72.0684959,44.9893847 72.0767756,45.949829 72.0049505,46.9059406 C71.9554455,47.6089109 71.9455446,49.0891089 71.1188119,49.0891089 C70.9261049,49.0867734 70.7522688,48.9728142 70.6732673,48.7970297 C70.3415842,48.1584158 70.3514851,43.7821782 70.3514851,42.0891089 C70.3514851,40.6039604 70.3514851,38.0742574 70.539604,37.3762376 C70.5847433,37.1051165 70.8099748,36.9003606 71.0841584,36.8811881 C72.0742574,36.8811881 71.9306931,39.4207921 71.8811881,39.7326733 C71.8269899,39.9955568 71.757566,40.2550698 71.6732673,40.509901 L73.0742574,40.509901 C73.1615245,40.4081897 73.2151373,40.2819402 73.2277228,40.1485149 C73.3861386,39.1584158 73.0247525,36.0445545 71.029703,36.0445545 C69.0346535,36.0445545 68.6485149,39.3168317 68.6485149,42.2722772 C68.6485149,45.2277228 68.6237624,49.9405941 71.1237624,49.9405941 C73.6237624,49.9405941 73.4306931,44.3415842 73.4306931,43.8762376 C73.4792571,43.6692805 73.3969097,43.4536088 73.2227723,43.3316832" id="Shape"></path>
                <path d="M87.7970297,40.8564356 L87.7970297,36.2425743 L86.1386139,36.2425743 C86.3006279,36.5705043 86.3965097,36.9271175 86.4207921,37.2920792 L86.4207921,48.6039604 C86.3967667,48.9689647 86.3008716,49.3256273 86.1386139,49.6534653 L87.5643564,49.6534653 C88.163623,49.701174 88.765431,49.6008726 89.3168317,49.3613861 C90.0247525,48.9306931 90.9108911,48.2574257 90.9108911,45.1683168 C90.9108911,42.0792079 89.5148515,40.8514851 87.7920792,40.8514851 M88.8762376,48.3019802 C88.6028397,48.6066132 88.1987087,48.759777 87.7920792,48.7128713 L87.7920792,41.7821782 C88.8861386,41.7821782 89.2772277,43.039604 89.2772277,45.7970297 C89.2772277,46.7623762 89.1831683,47.7772277 88.8762376,48.2722772" id="Shape"></path>
                <path d="M83.7277228,41.6584158 C84.4520107,41.1586787 84.8907314,40.3402249 84.9059406,39.460396 C84.9059406,39.3712871 84.9059406,39.2722772 84.9059406,39.1534653 C84.9059406,38.3762376 84.9455446,36.0346535 82.8861386,36.0346535 C80.8267327,36.0346535 80.8019802,38.3069307 80.8019802,38.3069307 L80.8019802,48.6089109 C80.7774401,48.9722496 80.6815548,49.3271936 80.519802,49.6534653 L82.1782178,49.6534653 C82.6991889,49.6776566 83.2184392,49.5775397 83.6930693,49.3613861 C84.3960396,48.9306931 85.2871287,48.2574257 85.2871287,45.1633663 C85.2871287,43.0742574 84.6534653,42.0841584 83.7128713,41.6584158 M82.1782178,41.3811881 L82.1782178,38.3069307 C82.1782178,37.6089109 82.2574257,36.8712871 82.9405941,36.8712871 C83.7227723,36.8712871 83.6732673,37.5445545 83.7128713,38.519802 C83.7433334,39.0610656 83.6898964,39.6037844 83.5544554,40.1287129 C83.4465432,40.8174754 82.8740724,41.338465 82.1782178,41.3811881 M83.2524752,48.3118812 C82.9811769,48.6130595 82.5808954,48.7643179 82.1782178,48.7178218 L82.1782178,42.3316832 C83.2722772,42.3316832 83.6633663,43.0544554 83.6633663,45.7970297 C83.6633663,46.7871287 83.5693069,47.7772277 83.2574257,48.2722772" id="Shape"></path>
                <path d="M79.3267327,36.2425743 L77.8415842,36.2425743 C77.902183,36.5814708 77.902183,36.9284302 77.8415842,37.2673267 L76.1584158,41.5841584 L76.1584158,36.2425743 L74.5,36.2425743 C74.6599376,36.5709936 74.7541138,36.9275177 74.7772277,37.2920792 L74.7772277,48.6089109 C74.7538549,48.9718484 74.6596755,49.326703 74.5,49.6534653 L76.4356436,49.6534653 C76.276088,49.3266582 76.181915,48.9718278 76.1584158,48.6089109 L76.1584158,43.9455446 L76.8465347,42.2623762 L78.2722772,48.6089109 C78.3203126,48.9576571 78.3001368,49.312414 78.2128713,49.6534653 L79.8514851,49.6534653 L77.7574257,40.049505 L79.3267327,36.2425743 Z" id="Shape"></path>
            </g>
        </g>
    </g>
</svg>