

<svg width="42px" height="42px" viewBox="0 0 42 42" version="1.1" xmlns="http://www.w3.org/2000/svg" xmlns:xlink="http://www.w3.org/1999/xlink">
    <!-- Generator: Sketch 51.1 (57501) - http://www.bohemiancoding.com/sketch -->
    <desc>Created with Sketch.</desc>
    <defs></defs>
    <g id="Page-1" stroke="none" stroke-width="1" fill="none" fill-rule="evenodd">
        <g id="icon_news_black" transform="translate(1.000000, 1.000000)" fill="#000000" fill-rule="nonzero">
            <path d="M8,1 L8,32.0270996 C8,35.1424697 7.66322203,37.4892821 6.92010473,39 L37,39 C38.181168,39 39,36.8247775 39,32.0305176 L39,1 L8,1 Z M41,-1 L41,32.0305176 C41,37.8622343 39.818832,41 37,41 L4,41 L4,39 C5.18105547,39 6,36.8235456 6,32.0270996 L6,-1 L41,-1 Z" id="Rectangle-3"></path>
            <path d="M14,7 L14,13 L33,13 L33,7 L14,7 Z M35,5 L35,15 L12,15 L12,5 L35,5 Z" id="Rectangle-4"></path>
            <path d="M13,21 C12.4477153,21 12,20.5522847 12,20 C12,19.4477153 12.4477153,19 13,19 L34,19 C34.5522847,19 35,19.4477153 35,20 C35,20.5522847 34.5522847,21 34,21 L13,21 Z" id="Line-3"></path>
            <path d="M13,27 C12.4477153,27 12,26.5522847 12,26 C12,25.4477153 12.4477153,25 13,25 L34,25 C34.5522847,25 35,25.4477153 35,26 C35,26.5522847 34.5522847,27 34,27 L13,27 Z" id="Line-3"></path>
            <path d="M13,33 C12.4477153,33 12,32.5522847 12,32 C12,31.4477153 12.4477153,31 13,31 L34,31 C34.5522847,31 35,31.4477153 35,32 C35,32.5522847 34.5522847,33 34,33 L13,33 Z" id="Line-3"></path>
            <path d="M1.00003862,32.9737549 C1.00003862,37.0551119 2.11087093,38.972168 4.13394976,38.972168 L4.13394976,40.972168 C0.714246317,40.972168 -0.999961378,38.0138165 -0.999961378,32.9737549 C-0.999961378,29.9785572 -0.999974252,21.320639 -1,7.0000018 L-1.0000018,6 L7.31253863,6 L7.31253863,8 L1.0000021,8 C1.00002635,21.7243423 1.00003862,30.0489269 1.00003862,32.9737549 Z" id="Path-8"></path>
        </g>
    </g>
</svg>