
<svg width="42px" height="42px" viewBox="0 0 42 42" version="1.1" xmlns="http://www.w3.org/2000/svg" xmlns:xlink="http://www.w3.org/1999/xlink">
    <!-- Generator: Sketch 51.2 (57519) - http://www.bohemiancoding.com/sketch -->
    <desc>Created with Sketch.</desc>
    <defs></defs>
    <g id="Page-1" stroke="none" stroke-width="1" fill="none" fill-rule="evenodd">
        <g id="icon_news" transform="translate(1.000000, 1.000000)" stroke="#000000" stroke-width="2">
            <path d="M7,0 L40,0 L40,32.0305176 C40,37.3435059 39,40 37,40 C29.2424316,40 14.9924316,40 4,40 C6,40 7,37.3423665 7,32.0270996 L7,0 Z" id="Rectangle-3"></path>
            <rect id="Rectangle-4" x="13" y="6" width="21" height="8"></rect>
            <path d="M13,20 L34,20" id="Line-3" stroke-linecap="round"></path>
            <path d="M13,26 L34,26" id="Line-3" stroke-linecap="round"></path>
            <path d="M13,32 L34,32" id="Line-3" stroke-linecap="round"></path>
            <path d="M7.31253863,7 L0,7 C2.5748e-05,21.320638 3.8622e-05,29.9785563 3.8622e-05,32.9737549 C3.8622e-05,37.4665528 1.37320757,39.972168 4.13394976,39.972168" id="Path-8"></path>
        </g>
    </g>
</svg>