
<svg width="46px" height="36px" viewBox="0 0 46 36" version="1.1" xmlns="http://www.w3.org/2000/svg" xmlns:xlink="http://www.w3.org/1999/xlink">
    <!-- Generator: Sketch 51.1 (57501) - http://www.bohemiancoding.com/sketch -->
    <desc>Created with Sketch.</desc>
    <defs></defs>
    <g id="Page-1" stroke="none" stroke-width="1" fill="none" fill-rule="evenodd">
        <g id="Symbols" transform="translate(-771.000000, -279.000000)" fill-rule="nonzero">
            <g id="Group-6" transform="translate(771.000000, 279.000000)">
                <polygon id="Star-2" fill="#FFFFFF" points="5 7.5 2.06107374 9.04508497 2.62235871 5.77254249 0.244717419 3.45491503 3.53053687 2.97745751 5 0 6.46946313 2.97745751 9.75528258 3.45491503 7.37764129 5.77254249 7.93892626 9.04508497"></polygon>
                <polygon id="Star-2-Copy" fill="#FFFFFF" points="5 20.5 2.06107374 22.045085 2.62235871 18.7725425 0.244717419 16.454915 3.53053687 15.9774575 5 13 6.46946313 15.9774575 9.75528258 16.454915 7.37764129 18.7725425 7.93892626 22.045085"></polygon>
                <polygon id="Star-2-Copy-2" fill="#FFFFFF" points="5 34.5 2.06107374 36.045085 2.62235871 32.7725425 0.244717419 30.454915 3.53053687 29.9774575 5 27 6.46946313 29.9774575 9.75528258 30.454915 7.37764129 32.7725425 7.93892626 36.045085"></polygon>
                <path d="M15.5,4.25 L45.5,4.25" id="Line" stroke="#FFFFFF" stroke-linecap="round"></path>
                <path d="M15.5,32.25 L45.5,32.25" id="Line-Copy" stroke="#FFFFFF" stroke-linecap="round"></path>
                <path d="M15.5,18.25 L45.5,18.25" id="Line-Copy-2" stroke="#FFFFFF" stroke-linecap="round"></path>
            </g>
        </g>
    </g>
</svg>