
<svg width="92px" height="33px" viewBox="0 0 92 33" version="1.1" xmlns="http://www.w3.org/2000/svg" xmlns:xlink="http://www.w3.org/1999/xlink">
    <!-- Generator: Sketch 51.1 (57501) - http://www.bohemiancoding.com/sketch -->
    <desc>Created with Sketch.</desc>
    <defs>
        <polygon id="path-1" points="0.5097041 26.7427747 59.8248457 26.7427747 59.8248457 0.50603633 0.5097041 0.50603633"></polygon>
    </defs>
    <g id="Page-1" stroke="none" stroke-width="1" fill="none" fill-rule="evenodd">
        <g id="VTB_Logo_2018">
            <path d="M6.25065367,0 L4.68701481,4.28311036 L26.3555573,4.28311036 L27.9191962,0 L6.25065367,0 Z M3.90470765,6.423693 L2.34106879,10.7058308 L24.0096113,10.7058308 L25.5732502,6.423693 L3.90470765,6.423693 Z M1.56363886,12.847386 L0,17.1295238 L21.6685425,17.1295238 L23.231206,12.847386 L1.56363886,12.847386 Z" id="Fill-1" fill="#FFFFFF" fill-rule="nonzero"></path>
            <g id="Fill-2-Clipped" transform="translate(32.000000, 6.000000)">
                <mask id="mask-2" fill="white">
                    <use xlink:href="#path-1"></use>
                </mask>
                <g id="path-1"></g>
                <path d="M14.0659305,12.7617116 L14.0659305,12.8520825 C15.0561913,13.215552 16.002112,13.8511271 16.497735,14.2592855 C18.0289442,15.5304356 18.7048834,17.2097442 18.7048834,19.3885751 C18.7048834,22.975602 16.8130419,25.5625912 13.7052982,26.3799011 C12.7593775,26.6520067 11.7691167,26.7433706 9.9216153,26.7433706 L0.5097041,26.7433706 L0.5097041,0.50603633 L8.8416891,0.50603633 C10.5532145,0.50603633 11.7237914,0.59640716 12.7593775,0.86851275 C15.7774558,1.68582259 17.7589627,3.77428262 17.7589627,7.0872178 C17.7589627,8.8578903 17.1283488,10.3564572 16.0927627,11.3545087 C15.642465,11.808349 15.0118512,12.3535533 14.0659305,12.7617116 Z M5.7339454,15.5304356 L5.7339454,22.4303977 L9.3373122,22.4303977 C10.4172384,22.4303977 11.4084845,22.3400269 12.129749,21.6587698 C12.8500282,20.9775128 13.1653351,20.1155141 13.1653351,18.9804167 C13.1653351,18.118418 12.9396936,17.3011081 12.489396,16.711215 C11.7237914,15.7578524 10.7778706,15.5304356 9.1569961,15.5304356 L5.7339454,15.5304356 Z M5.6886201,10.9910392 L8.6160476,10.9910392 C9.516643,10.9910392 9.9669407,10.9910392 10.4172384,10.8549864 C11.634126,10.4915169 12.3997305,9.4030945 12.3997305,7.9045276 C12.3997305,6.1348482 11.5888006,5.3622273 10.4172384,4.9997508 C9.9216153,4.863698 9.4269776,4.8180161 8.4357315,4.8180161 L5.6886201,4.8180161 L5.6886201,10.9910392 Z M26.5412454,26.7433706 L26.5412454,4.9083869 L19.0201903,4.9083869 L19.0201903,0.50603633 L39.918141,0.50603633 L38.4322572,4.9083869 L31.7654868,4.9083869 L31.7654868,26.7433706 L26.5412454,26.7433706 Z M41.5390156,26.7433706 L41.5390156,0.50603633 L58.4739526,0.50603633 L56.9880688,4.9083869 L46.7189169,4.9083869 L46.7189169,10.7189336 L50.9075721,10.7189336 C54.2852974,10.7189336 56.0421481,11.5362434 57.2580504,12.5799769 C58.2039711,13.3972867 59.8248457,15.2126481 59.8248457,18.799675 C59.8248457,22.3400269 58.1586457,24.291441 56.7624273,25.2904856 C55.1415527,26.4245899 53.4300274,26.7433706 49.9616514,26.7433706 L41.5390156,26.7433706 Z M46.7189169,22.3400269 L50.6375906,22.3400269 C52.1234744,22.3400269 53.0240698,21.9765574 53.6546836,21.1592475 C53.9699905,20.7510892 54.4202882,20.0241502 54.4202882,18.6626291 C54.4202882,17.3011081 53.9699905,16.3477455 53.0693951,15.6664884 C52.5294321,15.2583301 51.8081675,15.0319064 50.5922652,15.0319064 L46.7189169,15.0319064 L46.7189169,22.3400269 Z" id="Fill-2" fill="#FFFFFF" fill-rule="nonzero" mask="url(#mask-2)"></path>
            </g>
        </g>
    </g>
</svg>